<?xml version="1.0" standalone="no"?>
<!DOCTYPE svg PUBLIC "-//W3C//DTD SVG 20010904//EN"
 "http://www.w3.org/TR/2001/REC-SVG-20010904/DTD/svg10.dtd">
<svg version="1.0" xmlns="http://www.w3.org/2000/svg"
 width="1536.000000pt" height="1024.000000pt" viewBox="0 0 1536.000000 1024.000000"
 preserveAspectRatio="xMidYMid meet">
<metadata>
Created by potrace 1.16, written by Peter Selinger 2001-2019
</metadata>
<g transform="translate(0.000000,1024.000000) scale(0.100000,-0.100000)"
fill="#000000" stroke="none">
<path d="M2720 6755 c-8 -2 -49 -9 -90 -15 -101 -17 -170 -40 -271 -90 -274
-138 -459 -375 -587 -755 -171 -510 -147 -968 74 -1385 69 -129 148 -234 269
-355 290 -292 684 -455 1093 -455 247 1 450 44 547 117 126 95 143 284 33 366
-69 52 -69 52 -323 53 -266 1 -313 8 -507 70 -244 79 -439 195 -604 360 -144
144 -302 390 -292 456 4 27 65 61 146 79 l54 13 -29 14 c-15 9 -50 32 -78 52
-55 41 -133 79 -152 73 -15 -5 -50 89 -63 169 -46 289 66 628 278 835 165 161
358 237 597 236 143 -1 241 -23 348 -80 85 -46 205 -156 272 -251 94 -132 181
-166 402 -155 l131 6 11 -39 c6 -21 24 -56 41 -76 36 -44 140 -98 187 -98 40
0 41 -7 12 -110 -55 -199 -192 -355 -382 -436 l-50 -21 49 -7 c27 -4 75 -14
108 -22 l58 -15 72 68 c39 38 99 91 134 117 50 38 70 62 97 116 52 103 82 219
96 371 14 161 3 223 -53 275 -59 56 -126 66 -273 39 -47 -8 -145 -14 -237 -15
-205 0 -219 5 -293 110 -120 172 -259 278 -444 340 -115 38 -302 60 -381 45z"/>
<path d="M3105 6111 c-95 -43 -143 -161 -66 -161 24 0 34 7 46 30 20 39 67 63
106 55 16 -4 45 -22 64 -42 63 -65 114 -19 63 57 -27 40 -98 80 -143 80 -16 0
-48 -9 -70 -19z"/>
<path d="M11326 5809 c-52 -41 -56 -61 -56 -284 l0 -207 -57 51 c-32 29 -76
57 -102 66 -159 52 -313 15 -431 -104 -95 -94 -140 -217 -140 -377 0 -317 195
-532 467 -511 91 7 149 33 218 98 43 40 55 48 55 33 1 -40 37 -100 69 -114 39
-16 106 -8 133 17 48 42 48 46 48 663 0 630 0 625 -55 668 -38 30 -112 30
-149 1z m-187 -593 c39 -21 77 -61 104 -111 16 -31 22 -63 25 -143 4 -100 3
-105 -28 -168 -53 -108 -151 -153 -263 -120 -128 37 -204 207 -163 366 26 101
79 163 164 191 38 12 124 4 161 -15z"/>
<path d="M12468 5814 c-53 -28 -58 -53 -58 -284 0 -115 -2 -210 -3 -210 -2 0
-23 19 -47 41 -147 140 -388 127 -545 -29 -191 -189 -192 -572 -3 -761 66 -67
116 -96 198 -117 131 -33 261 -3 349 83 30 29 56 53 57 53 1 0 4 -18 8 -41 13
-84 86 -120 171 -85 67 28 65 9 65 676 0 651 1 637 -54 674 -31 20 -102 20
-138 0z m-227 -584 c50 -14 112 -71 140 -127 20 -41 23 -63 23 -153 0 -89 -4
-112 -23 -153 -89 -182 -328 -175 -414 12 -32 69 -31 227 2 294 52 106 162
157 272 127z"/>
<path d="M8330 5788 c-83 -43 -79 -9 -80 -656 -2 -649 -6 -615 80 -660 45 -24
46 -24 345 -19 316 5 370 12 460 58 174 90 252 309 171 484 -40 88 -95 134
-201 170 -18 6 -16 9 18 29 54 33 95 75 120 121 17 32 21 58 22 135 0 84 -3
102 -28 152 -33 67 -90 121 -162 154 -98 45 -170 54 -445 54 -246 0 -258 -1
-300 -22z m576 -237 c58 -27 88 -72 89 -137 0 -57 -18 -90 -69 -128 -25 -19
-44 -21 -208 -24 -138 -3 -183 0 -189 9 -4 7 -7 77 -6 156 l2 143 170 0 c144
0 176 -3 211 -19z m71 -543 c54 -36 76 -85 71 -157 -5 -68 -31 -110 -85 -137
-33 -16 -67 -19 -240 -22 l-203 -3 0 176 0 176 208 -3 c207 -3 209 -3 249 -30z"/>
<path d="M9555 5431 c-65 -39 -65 -38 -65 -379 0 -333 6 -385 54 -461 64 -101
185 -158 319 -149 97 7 164 37 227 104 29 30 52 48 55 41 2 -6 6 -28 9 -48 10
-56 47 -84 112 -84 47 0 57 4 86 33 l33 32 3 410 c3 454 2 462 -60 500 -42 25
-94 26 -135 0 -56 -34 -58 -42 -63 -335 -6 -306 -12 -335 -85 -391 -32 -24
-49 -29 -109 -32 -61 -3 -76 -1 -105 20 -19 13 -44 39 -55 58 -20 33 -21 56
-26 325 -4 213 -8 296 -18 313 -33 57 -120 78 -177 43z"/>
<path d="M12863 5430 c-36 -22 -63 -66 -63 -104 0 -14 74 -212 165 -441 165
-413 166 -416 153 -457 -6 -22 -26 -56 -44 -74 -29 -31 -36 -34 -93 -34 -98 0
-141 -31 -141 -104 0 -49 7 -63 48 -88 32 -20 51 -23 132 -23 84 0 102 3 152
28 116 57 134 93 373 742 19 50 61 162 94 250 66 173 73 220 41 272 -37 62
-142 66 -188 8 -10 -12 -65 -165 -122 -339 -57 -174 -107 -313 -110 -308 -4 4
-51 138 -105 297 -54 160 -107 307 -117 328 -32 63 -113 85 -175 47z"/>
<path d="M3369 4836 c-44 -30 -68 -79 -49 -101 18 -22 33 -19 64 14 16 16 39
32 52 35 27 7 70 -12 98 -43 11 -12 28 -21 38 -21 51 0 19 89 -44 121 -52 27
-115 25 -159 -5z"/>
<path d="M4113 4837 c-39 -39 -68 -50 -94 -37 -10 6 -19 18 -19 28 -1 13 -8 9
-30 -16 -57 -62 -27 -122 33 -64 56 53 113 50 155 -10 16 -22 35 -23 52 -4 16
21 -14 83 -51 101 -33 18 -31 17 -46 2z"/>
</g>
</svg>
